# xmcd
#
# Track frame offsets:
#	150
#	23132
#	39669
#	54710
#	80863
#	99004
#	118495
#	137622
#	151658
#	168403
#	181307
#	197356
#	215128
#	225483
#	246133
#	266067
#	287708
#	308467
#	322196
#
# Disc length: 4563 seconds
#
# Revision: 3
# Processed by: cddbd v1.5.2PL0 Copyright (c) Steve Scherf et al.
# Submitted via: audiograbber 1.83.01
#
DISCID=0a11d113
DTITLE=LL Cool J - Exit 13
DYEAR=2008
DGENRE=Rap
TTITLE0=LL Cool J - It's Time For War
TTITLE1=LL Cool J - Old School New School
TTITLE2=LL Cool J, 50 Cent - Feel My Heart Beat
TTITLE3=LL Cool J, It's Ya Girl Nicolette, Jiz, Lyrikal, Ticky Diamondz - Get O
TTITLE3=ver Here
TTITLE4=LL Cool J, The Dream - Baby
TTITLE5=LL Cool J - You Better Watch Me
TTITLE6=LL Cool J - Cry
TTITLE7=LL Cool J, Richie Sambora - Baby (Rock Remix)
TTITLE8=LL Cool J - Rocking With The G.O.A.T.
TTITLE9=LL Cool J, Grandmaster Caz - This Is Ring Tone M...
TTITLE10=LL Cool J, Ryan Leslie - Like A Radio
TTITLE11=LL Cool J, Elan Of The Dey - I Fall In Love
TTITLE12=LL Cool J - Ur Only A Customer
TTITLE13=LL Cool J, Wyclef Jean - Mr. President
TTITLE14=LL Cool J - American Girl
TTITLE15=LL Cool J, Funkmaster Flex - Speedin On Da Highway-Exit 13
TTITLE16=LL Cool J, Fat Joe, Sheek Louch - Come And Party With Me
TTITLE17=LL Cool J - We Rollin'
TTITLE18=LL Cool J - Dear Hip Hop
EXTD=www.RapMusicGuide.com
EXTT0=
EXTT1=
EXTT2=
EXTT3=
EXTT4=
EXTT5=
EXTT6=
EXTT7=
EXTT8=
EXTT9=
EXTT10=
EXTT11=
EXTT12=
EXTT13=
EXTT14=
EXTT15=
EXTT16=
EXTT17=
EXTT18=
PLAYORDER=
